# xmcd CD database file
#
# Track frame offsets:
#	150
#	31749
#	66011
#	85716
#	92531
#	133260
#	139826
#	181108
#	186574
#	210639
#
# Disc length: 3201 seconds
#
# Revision: 0
# Processed by: cddbd v1.5.2PL0 Copyright (c) Steve Scherf et al.
# Submitted via: CDex 1.70beta2
#
DISCID=860c7f0a
DTITLE=Ecstasy Project - Europae
DYEAR=2007
DGENRE=Jazz
TTITLE0=Maestoso non troppo
TTITLE1=Sempre adagio
TTITLE2=Allegro vivace animato
TTITLE3=Solo misterioso
TTITLE4=Adlibitum - Allegretto rallentando
TTITLE5=Solo con espressione
TTITLE6=Moderato recitando
TTITLE7=Solo con dolore
TTITLE8=Andantino grazioso cantabile
TTITLE9=Andante con melanconia
EXTD=YEAR: 2007
EXTT0=
EXTT1=
EXTT2=
EXTT3=
EXTT4=
EXTT5=
EXTT6=
EXTT7=
EXTT8=
EXTT9=
PLAYORDER=
